<?xml version="1.0" encoding="UTF-8"?>
<svg id="_Слой_2" data-name="Слой 2" xmlns="http://www.w3.org/2000/svg" viewBox="0 0 935.45 433.55">
  <defs>
    <style>
      .cls-1, .cls-2 {
        fill: #e6f7ff;
      }

      .cls-2 {
        fill-rule: evenodd;
      }
    </style>
  </defs>
  <g id="_Слой_1-2" data-name="Слой 1">
    <g>
      <path class="cls-1" d="M61.54,216.61c36.9,0,61.8-17.99,61.8-45.76,0-20.86-12.26-31.81-41.98-38.07l-23.08-4.95c-13.95-3-19.43-7.82-19.43-15.12,0-9,9-15.12,21.9-15.12,13.69,0,21.25,6.52,27.9,14.99,3.39,4.04,8.87,5.87,13.82,5.87,9.78,0,14.6-5.35,14.6-13.04,0-1.83-.39-3.65-.91-5.61-4.56-15.78-25.82-28.94-54.76-28.94-36.25,0-59.32,17.21-59.32,43.94,0,20.73,13.82,34.68,41.2,40.55l23.47,4.95c13.69,3,18.51,7.04,18.51,14.6,0,9.26-9,14.99-22.82,14.99s-23.08-4.43-30.51-14.21c-5.22-5.87-10.43-8.61-16.56-8.61-8.87,0-15.38,5.87-15.38,14.6,0,2.09,.52,4.56,1.43,7.04,6.65,16.43,28.03,27.9,60.1,27.9Z"/>
      <path class="cls-1" d="M152.41,177.89c0,24.64,12.91,37.29,38.33,37.29h1.3c16.04,0,26.99-5.74,26.99-16.95,0-8.87-5.08-12.78-14.47-13.82l-2.48-.26c-8.21-.65-11.6-4.82-11.6-14.73V102.53h13.43c9,0,14.6-5.61,14.6-14.34s-5.61-14.34-14.6-14.34h-13.43v-15.51c0-12.26-7.17-19.82-19.03-19.82s-19.04,7.56-19.04,19.82v15.51h-7.3c-9,0-14.73,5.48-14.73,14.34s5.74,14.34,14.73,14.34h7.3v75.36Z"/>
      <path class="cls-1" d="M256.19,216.35c11.21,0,19.04-6.78,19.04-19.82v-63.1c0-18.12,10.82-30.64,27.9-30.64s25.68,10.43,25.68,28.68v65.06c0,13.04,7.82,19.82,19.04,19.82s19.03-6.78,19.03-19.82V123.52c0-32.72-17.47-52.28-48.5-52.28-21.51,0-35.59,9.52-43.02,26.86h-.78v-7.82c0-11.99-7.56-19.3-19.04-19.3s-18.38,7.3-18.38,19.17v106.39c0,13.04,7.95,19.82,19.04,19.82Z"/>
      <path class="cls-1" d="M410.95,216.35c11.21,0,19.04-6.78,19.04-19.82v-28.29l12.13-11.21,35.85,47.46c6,9,10.56,11.86,18.65,11.86,10.69,0,18.12-7.04,18.12-17.21,0-4.95-1.17-8.34-5.35-13.95l-38.98-49.67,35.59-33.64c5.47-5.08,7.17-8.61,7.17-14.34,0-9.39-7.17-16.56-16.95-16.56-5.74,0-10.04,2.22-15.12,7.56l-50.59,50.72h-.52V42.56c0-13.04-7.82-19.95-19.04-19.95s-19.03,6.91-19.03,19.95V196.53c0,13.04,7.95,19.82,19.03,19.82Z"/>
      <path class="cls-2" d="M562.85,32.87c-6.56,12.88-6.56,29.73-6.56,63.45v44.12c0,33.71,0,50.57,6.56,63.45,5.77,11.33,14.98,20.54,26.31,26.31,12.88,6.56,29.74,6.56,63.45,6.56h186.53c33.71,0,50.57,0,63.45-6.56,11.33-5.77,20.53-14.98,26.3-26.31,6.56-12.88,6.56-29.73,6.56-63.45v-44.12c0-33.71,0-50.57-6.56-63.45-5.77-11.33-14.98-20.54-26.3-26.31-12.88-6.56-29.74-6.56-63.45-6.56h-186.53c-33.71,0-50.57,0-63.45,6.56-11.33,5.77-20.54,14.98-26.31,26.31Zm169.87,133.44c-9.4,21.46-36.3,36.45-66.43,36.45-47.47,0-77.6-31.16-77.6-82.15s30.13-82.15,77.3-82.15c31.6,0,57.91,15.28,66.43,37.62,1.61,3.67,2.5,7.5,2.5,10.58,0,10.58-8.38,16.75-18.37,16.75-8.52,0-13.67-3.38-18.23-11.17-7.64-13.82-17.19-20.13-31.01-20.13-21.75,0-35.12,17.93-35.12,48.35s13.38,48.65,34.98,48.65c14.99,0,24.1-7.35,30.86-18.52,5.59-8.96,10.44-12.64,19.55-12.64,9.85,0,17.93,6.61,17.93,17.19,0,3.38-.73,6.91-2.79,11.17Zm165.77,0c-9.4,21.46-36.3,36.45-66.43,36.45-47.47,0-77.59-31.16-77.59-82.15s30.12-82.15,77.3-82.15c31.6,0,57.91,15.28,66.43,37.62,1.62,3.67,2.5,7.5,2.5,10.58,0,10.58-8.38,16.75-18.37,16.75-8.52,0-13.67-3.38-18.22-11.17-7.64-13.82-17.2-20.13-31.01-20.13-21.75,0-35.12,17.93-35.12,48.35s13.37,48.65,34.98,48.65c14.99,0,24.1-7.35,30.86-18.52,5.59-8.96,10.44-12.64,19.55-12.64,9.85,0,17.93,6.61,17.93,17.19,0,3.38-.73,6.91-2.79,11.17Z"/>
      <path class="cls-1" d="M29.97,303.95l17.15,58.78,15.61-54.64c1.67-5.72,2.91-9.62,3.71-11.71,.8-2.09,2.31-4.08,4.53-5.97,2.22-1.89,5.25-2.84,9.11-2.84s6.99,.95,9.2,2.84c2.22,1.9,3.77,3.95,4.67,6.17,.9,2.22,2.15,6.06,3.76,11.51l15.61,54.64,17.34-58.78c1.16-4.24,2.09-7.31,2.79-9.2,.71-1.89,1.89-3.57,3.57-5.01,1.67-1.45,4.08-2.17,7.23-2.17s5.88,1.09,8.19,3.28c2.31,2.18,3.47,4.75,3.47,7.71,0,2.7-1,6.78-2.99,12.24l-21.49,63.02c-1.86,5.33-3.31,9.19-4.34,11.56-1.03,2.38-2.65,4.5-4.87,6.36s-5.25,2.79-9.11,2.79-7.12-1-9.4-2.99c-2.28-1.99-3.97-4.43-5.06-7.32-1.09-2.89-2.28-6.65-3.57-11.27l-15.03-51.26-14.55,51.26c-1.93,7.13-4.02,12.51-6.26,16.14-2.25,3.63-6.2,5.44-11.85,5.44-2.89,0-5.35-.56-7.37-1.69s-3.71-2.73-5.06-4.82c-1.35-2.09-2.54-4.56-3.57-7.42-1.03-2.86-1.83-5.12-2.41-6.79l-21.3-63.02c-2.12-5.91-3.18-9.99-3.18-12.24,0-2.83,1.12-5.36,3.37-7.61,2.25-2.25,5.01-3.37,8.29-3.37,4.37,0,7.32,1.24,8.86,3.71,1.54,2.47,3.18,6.7,4.91,12.67Z"/>
      <path class="cls-1" d="M269.9,341.05c0,7.84-1.22,15.07-3.66,21.68-2.44,6.62-5.97,12.3-10.6,17.06-4.62,4.75-10.15,8.4-16.57,10.94-6.42,2.54-13.65,3.81-21.68,3.81s-15.13-1.29-21.49-3.85c-6.36-2.57-11.87-6.25-16.53-11.03-4.66-4.79-8.19-10.44-10.6-16.96-2.41-6.52-3.61-13.73-3.61-21.63s1.22-15.26,3.66-21.87c2.44-6.62,5.94-12.27,10.5-16.96,4.56-4.69,10.08-8.3,16.57-10.84,6.49-2.54,13.65-3.81,21.49-3.81s15.19,1.29,21.68,3.85c6.49,2.57,12.04,6.23,16.67,10.99,4.62,4.75,8.14,10.41,10.55,16.96,2.41,6.55,3.61,13.78,3.61,21.68Zm-26.4,0c0-10.73-2.36-19.08-7.08-25.05-4.72-5.97-11.07-8.96-19.03-8.96-5.14,0-9.67,1.33-13.59,4-3.92,2.67-6.94,6.6-9.06,11.8-2.12,5.2-3.18,11.27-3.18,18.21s1.04,12.88,3.13,18.02c2.09,5.14,5.07,9.07,8.96,11.8,3.89,2.73,8.46,4.09,13.73,4.09,7.96,0,14.31-3,19.03-9.01,4.72-6.01,7.08-14.31,7.08-24.91Z"/>
      <path class="cls-1" d="M316.73,356.56v21.97c0,5.33-1.25,9.33-3.76,12s-5.69,4-9.54,4-6.91-1.35-9.35-4.05c-2.44-2.7-3.66-6.68-3.66-11.95v-73.23c0-11.82,4.27-17.73,12.82-17.73,4.37,0,7.52,1.38,9.44,4.14,1.93,2.76,2.99,6.84,3.18,12.24,3.15-5.4,6.38-9.47,9.68-12.24,3.31-2.76,7.72-4.14,13.25-4.14s10.89,1.38,16.09,4.14c5.2,2.76,7.81,6.42,7.81,10.99,0,3.21-1.11,5.86-3.32,7.95-2.22,2.09-4.61,3.13-7.18,3.13-.96,0-3.29-.59-6.99-1.78-3.69-1.19-6.95-1.78-9.78-1.78-3.85,0-7,1.01-9.44,3.04-2.44,2.02-4.34,5.03-5.69,9.01-1.35,3.98-2.28,8.72-2.79,14.21-.51,5.49-.77,12.19-.77,20.09Z"/>
      <path class="cls-1" d="M437.66,382.48l-23.22-38.16-14.26,13.49v20.91c0,5.08-1.33,8.98-4,11.71-2.67,2.73-5.73,4.1-9.2,4.1-4.05,0-7.23-1.35-9.54-4.05-2.31-2.7-3.47-6.68-3.47-11.95v-112.16c0-5.84,1.12-10.29,3.37-13.35,2.25-3.05,5.46-4.58,9.64-4.58s7.26,1.38,9.64,4.14c2.38,2.76,3.56,6.84,3.56,12.24v63.79l29.58-31.03c3.66-3.85,6.46-6.49,8.38-7.9,1.93-1.41,4.27-2.12,7.03-2.12,3.28,0,6.01,1.04,8.19,3.13,2.18,2.09,3.28,4.71,3.28,7.85,0,3.85-3.56,8.99-10.7,15.42l-13.97,12.82,26.98,42.4c1.99,3.15,3.42,5.54,4.29,7.18,.87,1.64,1.3,3.2,1.3,4.67,0,4.18-1.14,7.47-3.42,9.88-2.28,2.41-5.28,3.61-9.01,3.61-3.21,0-5.69-.87-7.42-2.6s-4.08-4.88-7.03-9.44Z"/>
      <path class="cls-1" d="M565.05,360.13c0,7.26-1.77,13.48-5.3,18.65-3.53,5.17-8.75,9.09-15.66,11.76-6.91,2.67-15.31,4-25.2,4s-17.54-1.45-24.28-4.34c-6.75-2.89-11.72-6.5-14.94-10.84-3.21-4.34-4.82-8.69-4.82-13.06,0-2.89,1.03-5.36,3.08-7.42,2.06-2.05,4.66-3.08,7.81-3.08,2.76,0,4.88,.67,6.36,2.02,1.48,1.35,2.89,3.24,4.24,5.69,2.7,4.69,5.93,8.19,9.68,10.5,3.76,2.31,8.88,3.47,15.37,3.47,5.27,0,9.59-1.17,12.96-3.52,3.37-2.34,5.06-5.03,5.06-8.05,0-4.62-1.75-8-5.25-10.12-3.5-2.12-9.27-4.14-17.3-6.07-9.06-2.25-16.43-4.61-22.11-7.08-5.69-2.47-10.23-5.73-13.63-9.78-3.41-4.05-5.11-9.02-5.11-14.94,0-5.27,1.57-10.25,4.72-14.94,3.15-4.69,7.79-8.43,13.92-11.23,6.13-2.79,13.54-4.19,22.21-4.19,6.81,0,12.93,.71,18.36,2.12,5.43,1.41,9.96,3.31,13.59,5.69,3.63,2.38,6.39,5.01,8.29,7.9,1.89,2.89,2.84,5.72,2.84,8.48,0,3.02-1.01,5.49-3.04,7.42-2.02,1.93-4.9,2.89-8.62,2.89-2.7,0-5-.77-6.89-2.31-1.9-1.54-4.06-3.85-6.5-6.94-1.99-2.57-4.34-4.62-7.03-6.17-2.7-1.54-6.36-2.31-10.98-2.31s-8.71,1.01-11.85,3.04c-3.15,2.02-4.72,4.55-4.72,7.56,0,2.76,1.16,5.03,3.47,6.79,2.31,1.77,5.43,3.23,9.35,4.38,3.92,1.16,9.31,2.57,16.19,4.24,8.16,1.99,14.82,4.37,19.99,7.13,5.17,2.76,9.09,6.02,11.76,9.78,2.67,3.76,4,8.05,4,12.86Z"/>
      <path class="cls-1" d="M613.04,264.44v39.03c3.34-3.85,6.6-6.9,9.78-9.15,3.18-2.25,6.7-3.93,10.55-5.06,3.85-1.12,8-1.69,12.43-1.69,6.68,0,12.61,1.41,17.78,4.24,5.17,2.83,9.23,6.94,12.19,12.33,1.86,3.15,3.12,6.67,3.76,10.55,.64,3.89,.96,8.37,.96,13.44v50.4c0,5.27-1.21,9.25-3.61,11.95-2.41,2.7-5.61,4.05-9.59,4.05-8.67,0-13.01-5.33-13.01-16v-44.42c0-8.42-1.25-14.89-3.76-19.42-2.51-4.53-7.26-6.79-14.26-6.79-4.69,0-8.91,1.33-12.67,4-3.76,2.67-6.57,6.31-8.43,10.94-1.41,3.92-2.12,10.89-2.12,20.91v34.79c0,5.2-1.17,9.17-3.52,11.9-2.35,2.73-5.61,4.1-9.78,4.1-8.67,0-13.01-5.33-13.01-16v-114.09c0-5.33,1.14-9.33,3.42-12,2.28-2.66,5.48-4,9.59-4s7.43,1.35,9.78,4.05c2.34,2.7,3.52,6.68,3.52,11.95Z"/>
      <path class="cls-1" d="M804.98,341.05c0,7.84-1.22,15.07-3.66,21.68-2.44,6.62-5.97,12.3-10.6,17.06-4.63,4.75-10.15,8.4-16.57,10.94-6.42,2.54-13.65,3.81-21.68,3.81s-15.13-1.29-21.49-3.85c-6.36-2.57-11.87-6.25-16.53-11.03-4.66-4.79-8.19-10.44-10.6-16.96-2.41-6.52-3.61-13.73-3.61-21.63s1.22-15.26,3.66-21.87c2.44-6.62,5.94-12.27,10.5-16.96,4.56-4.69,10.08-8.3,16.57-10.84,6.49-2.54,13.65-3.81,21.49-3.81s15.19,1.29,21.68,3.85c6.49,2.57,12.04,6.23,16.67,10.99,4.63,4.75,8.14,10.41,10.55,16.96s3.61,13.78,3.61,21.68Zm-26.4,0c0-10.73-2.36-19.08-7.08-25.05-4.72-5.97-11.07-8.96-19.03-8.96-5.14,0-9.67,1.33-13.59,4-3.92,2.67-6.94,6.6-9.06,11.8s-3.18,11.27-3.18,18.21,1.04,12.88,3.13,18.02c2.09,5.14,5.07,9.07,8.96,11.8,3.89,2.73,8.46,4.09,13.73,4.09,7.96,0,14.31-3,19.03-9.01,4.72-6.01,7.08-14.31,7.08-24.91Z"/>
      <path class="cls-1" d="M849.98,302.31v3.18c4.95-6.1,10.08-10.58,15.42-13.44,5.33-2.86,11.37-4.29,18.12-4.29,8.09,0,15.54,2.09,22.36,6.26,6.81,4.18,12.19,10.28,16.14,18.31,3.95,8.03,5.93,17.54,5.93,28.52,0,8.09-1.14,15.53-3.42,22.31-2.28,6.78-5.41,12.46-9.39,17.06-3.98,4.59-8.69,8.13-14.12,10.6-5.43,2.47-11.26,3.71-17.49,3.71-7.52,0-13.83-1.51-18.93-4.53-5.11-3.02-9.97-7.45-14.6-13.3v39.51c0,11.56-4.21,17.34-12.62,17.34-4.95,0-8.22-1.49-9.83-4.48-1.61-2.99-2.41-7.34-2.41-13.06v-113.51c0-5.01,1.09-8.75,3.28-11.23,2.18-2.47,5.17-3.71,8.96-3.71s6.76,1.27,9.11,3.81c2.34,2.54,3.52,6.18,3.52,10.94Zm51.55,38.25c0-6.94-1.06-12.9-3.18-17.88-2.12-4.98-5.06-8.8-8.82-11.47-3.76-2.67-7.92-4-12.48-4-7.26,0-13.38,2.86-18.36,8.58-4.98,5.72-7.47,14.13-7.47,25.25,0,10.47,2.47,18.61,7.42,24.43,4.95,5.82,11.08,8.72,18.41,8.72,4.37,0,8.42-1.27,12.14-3.81,3.73-2.54,6.71-6.34,8.96-11.42,2.25-5.07,3.37-11.21,3.37-18.4Z"/>
    </g>
  </g>
</svg>