<svg width="1976" height="500" viewBox="0 0 1976 500" fill="none" xmlns="http://www.w3.org/2000/svg">
<path d="M129.964 457.461C207.887 457.461 260.478 419.463 260.478 360.814C260.478 316.759 234.595 293.63 171.816 280.413L123.08 269.95C93.6178 263.617 82.0533 253.429 82.0533 238.01C82.0533 219.011 101.052 206.069 128.311 206.069C157.223 206.069 173.193 219.837 187.236 237.734C194.395 246.27 205.959 250.125 216.422 250.125C237.073 250.125 247.261 238.836 247.261 222.59C247.261 218.735 246.435 214.88 245.334 210.75C235.697 177.433 190.815 149.623 129.688 149.623C53.1419 149.623 4.40554 185.969 4.40554 242.415C4.40554 286.195 33.5923 315.657 91.4151 328.048L140.977 338.511C169.889 344.844 180.077 353.38 180.077 369.35C180.077 388.899 161.078 401.015 131.891 401.015C101.328 401.015 83.1547 391.653 67.4599 371.002C56.446 358.611 45.4322 352.829 32.4909 352.829C13.7673 352.829 0 365.22 0 383.668C0 388.073 1.10139 393.305 3.02881 398.537C17.0715 433.23 62.2283 457.461 129.964 457.461Z" fill="url(#paint0_linear_9_156)"/>
<path d="M321.88 375.683C321.88 427.723 349.139 454.432 402.832 454.432H405.585C439.453 454.432 462.582 442.317 462.582 418.637C462.582 399.913 451.844 391.653 432.019 389.45L426.787 388.899C409.44 387.523 402.281 378.712 402.281 357.785V216.533H430.642C449.641 216.533 461.481 204.693 461.481 186.244C461.481 167.796 449.641 155.956 430.642 155.956H402.281V123.19C402.281 97.3075 387.137 81.3374 362.081 81.3374C337.024 81.3374 321.88 97.3075 321.88 123.19V155.956H306.461C287.462 155.956 275.347 167.521 275.347 186.244C275.347 204.968 287.462 216.533 306.461 216.533H321.88V375.683Z" fill="url(#paint1_linear_9_156)"/>
<path d="M541.056 456.91C564.736 456.91 581.257 442.592 581.257 415.057V281.79C581.257 243.517 604.11 217.083 640.181 217.083C676.251 217.083 694.424 239.111 694.424 277.659V415.057C694.424 442.592 710.945 456.91 734.625 456.91C758.029 456.91 774.825 442.592 774.825 415.057V260.863C774.825 191.751 737.929 150.449 672.396 150.449C626.964 150.449 597.227 170.55 581.532 207.171H579.88V190.65C579.88 165.318 563.91 149.899 539.679 149.899C515.449 149.899 500.855 165.318 500.855 190.375V415.057C500.855 442.592 517.652 456.91 541.056 456.91Z" fill="url(#paint2_linear_9_156)"/>
<path d="M867.892 456.91C891.572 456.91 908.093 442.592 908.093 415.057V355.307L933.7 331.627L1009.42 431.854C1022.09 450.852 1031.72 456.91 1048.8 456.91C1071.37 456.91 1087.07 442.041 1087.07 420.564C1087.07 410.101 1084.59 402.942 1075.78 391.102L993.45 286.195L1068.62 215.156C1080.18 204.417 1083.76 196.983 1083.76 184.868C1083.76 165.043 1068.62 149.899 1047.97 149.899C1035.85 149.899 1026.77 154.58 1016.03 165.869L909.194 272.979H908.093V89.8731C908.093 62.3385 891.572 47.7451 867.892 47.7451C844.488 47.7451 827.692 62.3385 827.692 89.8731V415.057C827.692 442.592 844.488 456.91 867.892 456.91Z" fill="url(#paint3_linear_9_156)"/>
<path fill-rule="evenodd" clip-rule="evenodd" d="M1188.69 69.4139C1174.84 96.6083 1174.84 132.208 1174.84 203.407V296.593C1174.84 367.792 1174.84 403.392 1188.69 430.586C1200.88 454.507 1220.33 473.955 1244.25 486.144C1271.45 500 1307.05 500 1378.24 500H1772.18C1843.38 500 1878.98 500 1906.18 486.144C1930.1 473.955 1949.54 454.507 1961.73 430.586C1975.59 403.392 1975.59 367.792 1975.59 296.593V203.407C1975.59 132.208 1975.59 96.6083 1961.73 69.4139C1949.54 45.4929 1930.1 26.0446 1906.18 13.8563C1878.98 0 1843.38 0 1772.18 0H1378.24C1307.05 0 1271.45 0 1244.25 13.8563C1220.33 26.0446 1200.88 45.4929 1188.69 69.4139ZM1547.43 351.218C1527.57 396.533 1470.77 428.191 1407.14 428.191C1306.89 428.191 1243.26 362.392 1243.26 254.692C1243.26 148.233 1306.89 81.1925 1406.52 81.1925C1473.25 81.1925 1528.81 113.471 1546.81 160.648C1550.22 168.408 1552.09 176.477 1552.09 182.995C1552.09 205.342 1534.39 218.378 1513.29 218.378C1495.29 218.378 1484.42 211.239 1474.8 194.79C1458.66 165.614 1438.49 152.268 1409.31 152.268C1363.38 152.268 1335.13 190.134 1335.13 254.381C1335.13 319.871 1363.38 357.115 1409 357.115C1440.66 357.115 1459.9 341.597 1474.18 318.008C1485.98 299.075 1496.22 291.316 1515.46 291.316C1536.26 291.316 1553.33 305.283 1553.33 327.63C1553.33 334.769 1551.78 342.217 1547.43 351.218ZM1897.53 351.218C1877.67 396.533 1820.87 428.191 1757.24 428.191C1656.99 428.191 1593.37 362.392 1593.37 254.692C1593.37 148.233 1656.99 81.1925 1756.62 81.1925C1823.35 81.1925 1878.91 113.471 1896.91 160.648C1900.33 168.408 1902.19 176.477 1902.19 182.995C1902.19 205.342 1884.5 218.378 1863.39 218.378C1845.39 218.378 1834.53 211.239 1824.91 194.79C1808.77 165.614 1788.59 152.268 1759.42 152.268C1713.48 152.268 1685.24 190.134 1685.24 254.381C1685.24 319.871 1713.48 357.115 1759.11 357.115C1790.76 357.115 1810.01 341.597 1824.28 318.008C1836.08 299.075 1846.32 291.316 1865.56 291.316C1886.36 291.316 1903.43 305.283 1903.43 327.63C1903.43 334.769 1901.88 342.217 1897.53 351.218Z" fill="url(#paint4_linear_9_156)"/>
<defs>
<linearGradient id="paint0_linear_9_156" x1="0" y1="250" x2="1975.59" y2="250" gradientUnits="userSpaceOnUse">
<stop stop-color="#C9D6FF"/>
<stop offset="1" stop-color="#E2E2E2"/>
</linearGradient>
<linearGradient id="paint1_linear_9_156" x1="0" y1="250" x2="1975.59" y2="250" gradientUnits="userSpaceOnUse">
<stop stop-color="#C9D6FF"/>
<stop offset="1" stop-color="#E2E2E2"/>
</linearGradient>
<linearGradient id="paint2_linear_9_156" x1="0" y1="250" x2="1975.59" y2="250" gradientUnits="userSpaceOnUse">
<stop stop-color="#C9D6FF"/>
<stop offset="1" stop-color="#E2E2E2"/>
</linearGradient>
<linearGradient id="paint3_linear_9_156" x1="0" y1="250" x2="1975.59" y2="250" gradientUnits="userSpaceOnUse">
<stop stop-color="#C9D6FF"/>
<stop offset="1" stop-color="#E2E2E2"/>
</linearGradient>
<linearGradient id="paint4_linear_9_156" x1="0" y1="250" x2="1975.59" y2="250" gradientUnits="userSpaceOnUse">
<stop stop-color="#C9D6FF"/>
<stop offset="1" stop-color="#E2E2E2"/>
</linearGradient>
</defs>
</svg>
